<?xml version="1.0" encoding="utf-8"?>
<!-- Generator: Adobe Illustrator 25.2.0, SVG Export Plug-In . SVG Version: 6.00 Build 0)  -->
<svg version="1.1" id="Capa_1" xmlns="http://www.w3.org/2000/svg" xmlns:xlink="http://www.w3.org/1999/xlink" x="0px" y="0px"
	 viewBox="0 0 1920 1949" style="enable-background:new 0 0 1920 1949;" xml:space="preserve">
<style type="text/css">
	.st0{fill:url(#SVGID_1_);}
	.st1{fill:url(#SVGID_2_);}
	.st2{fill:url(#SVGID_3_);}
	.st3{fill:url(#SVGID_4_);}
	.st4{fill:url(#SVGID_5_);}
	.st5{fill:url(#SVGID_6_);}
	.st6{fill:url(#SVGID_7_);}
	.st7{fill:url(#SVGID_8_);}
	.st8{fill:url(#SVGID_9_);}
	.st9{fill:url(#SVGID_10_);}
	.st10{fill:url(#SVGID_11_);}
</style>
<g>
	<g>
		<linearGradient id="SVGID_1_" gradientUnits="userSpaceOnUse" x1="769.0635" y1="135.5654" x2="1131.9352" y2="135.5654">
			<stop  offset="0.0726" style="stop-color:#1DDD53"/>
			<stop  offset="0.9274" style="stop-color:#1DDDAE"/>
		</linearGradient>
		<path class="st0" d="M950.5,201.05L1131.94,96.3l-19.15-11.06c-35.01-20.21-78.15-20.21-113.16,0L950.5,113.6l-49.12-28.36
			c-35.01-20.21-78.15-20.21-113.16,0L769.06,96.3L950.5,201.05z"/>
		<linearGradient id="SVGID_2_" gradientUnits="userSpaceOnUse" x1="540.8778" y1="336.1447" x2="1360.1207" y2="336.1447">
			<stop  offset="0.0726" style="stop-color:#1DDD53"/>
			<stop  offset="0.9274" style="stop-color:#1DDDAE"/>
		</linearGradient>
		<path class="st1" d="M1360.12,228.04L1360.12,228.04c-46.86-27.06-104.6-27.06-151.47,0L950.5,377.09L692.35,228.04
			c-46.86-27.06-104.6-27.06-151.47,0l0,0l409.62,236.5L1360.12,228.04z"/>
		<g>
			<g>
				<g>
					<linearGradient id="SVGID_3_" gradientUnits="userSpaceOnUse" x1="737.8464" y1="1100.8972" x2="1161.1167" y2="1100.8972">
						<stop  offset="0.0726" style="stop-color:#1DDD53"/>
						<stop  offset="0.9274" style="stop-color:#1DDDAE"/>
					</linearGradient>
					<path class="st2" d="M1161.12,918.31c0,150.55-80.31,289.65-210.69,364.92l-0.45,0.27l-0.12-0.08
						c76.75-44.33,124.04-126.25,124.04-214.9l-124.66,71.98l-124.68-71.98c0,44.33,11.83,86.97,33.25,124.1
						c18.23,31.55,43.36,59.1,74.11,80.26c-1.59-0.95-3.18-1.92-4.77-2.89c-0.04,0-0.06-0.02-0.08-0.06
						c-55.34-36.49-100.48-85.01-132.75-140.93c-36.38-63-56.46-135.4-56.46-210.69l211.64,122.2L1161.12,918.31z"/>
					<linearGradient id="SVGID_4_" gradientUnits="userSpaceOnUse" x1="564.3918" y1="950.7766" x2="1335.583" y2="950.7766">
						<stop  offset="0.0726" style="stop-color:#1DDD53"/>
						<stop  offset="0.9274" style="stop-color:#1DDDAE"/>
					</linearGradient>
					<path class="st3" d="M1335.58,617.92c0,274.26-146.32,527.71-383.85,664.87l-1.49,0.85l-0.12-0.08l0.95-0.54
						c183.96-106.22,297.29-302.49,297.29-514.91L949.73,940.52L651.12,768.1c0,106.22,28.33,208.39,79.64,297.29
						c46.42,80.41,111.65,149.94,191.75,201.79c-1.28-0.78-2.54-1.55-3.8-2.33c-105.21-67.21-190.78-157.95-251.47-263.07
						c-66.28-114.79-102.85-246.72-102.85-383.85L950,840.54L1335.58,617.92z"/>
					<linearGradient id="SVGID_5_" gradientUnits="userSpaceOnUse" x1="390.9373" y1="800.6456" x2="1510.0493" y2="800.6456">
						<stop  offset="0.0726" style="stop-color:#1DDD53"/>
						<stop  offset="0.9274" style="stop-color:#1DDDAE"/>
					</linearGradient>
					<path class="st4" d="M1510.05,317.51c0,398.02-212.34,765.8-557.04,964.82l-2.52,1.45l-0.12-0.06l2-1.16
						c291.11-168.09,470.45-478.69,470.45-814.84L950.25,740.56L477.66,467.72c0,168.07,44.83,329.77,126.06,470.45
						c74.88,129.68,180.68,241.51,310.79,324.05c-156.98-98.08-284.47-232.02-374.33-387.67
						c-96.16-166.58-149.25-358.04-149.25-557.04l559.56,323.06L1510.05,317.51z"/>
				</g>
			</g>
			<linearGradient id="SVGID_6_" gradientUnits="userSpaceOnUse" x1="564.3918" y1="950.8489" x2="1335.583" y2="950.8489">
				<stop  offset="0.0726" style="stop-color:#1DDD53"/>
				<stop  offset="0.9274" style="stop-color:#1DDDAE"/>
			</linearGradient>
			<path class="st5" d="M950,840.54L564.39,617.92c0,137.13,36.57,269.06,102.85,383.85c60.69,105.13,146.26,195.86,251.47,263.07
				c0.81,0.52,1.63,1.03,2.44,1.55c1.16,0.72,2.33,1.43,3.49,2.15c0,0.02,0.02,0.02,0.04,0.02c1.36,0.87,2.75,1.69,4.11,2.52
				c0,0,0.02,0.02,0.04,0.02c1.42,0.89,2.87,1.76,4.32,2.62c0.04,0.02,0.06,0.04,0.1,0.06c4.91,2.97,9.89,5.91,14.87,8.78l1.61,0.93
				l0.12,0.06l0.14,0.08l0.12,0.08l0.12,0.06l0.12-0.06l-0.12-0.08l1.49-0.85c237.53-137.15,383.85-390.6,383.85-664.87L950,840.54z
				 M947.97,1282.33c-5.31-3.06-10.59-6.17-15.84-9.31c-0.08-0.04-0.16-0.1-0.23-0.14c-30.75-21.17-55.88-48.71-74.11-80.26
				c-21.41-37.13-33.25-79.77-33.25-124.1l124.68,71.98l124.66-71.98c0,88.65-47.29,170.56-124.04,214.9L947.97,1282.33z
				 M951.07,1283.01l-0.95,0.54l-0.14-0.06l0.45-0.27c130.38-75.27,210.69-214.36,210.69-364.92l-211.64,122.2l-211.64-122.2
				c0,75.29,20.07,147.68,56.46,210.69c32.28,55.92,77.41,104.44,132.75,140.93c-1.51-0.89-3.01-1.8-4.5-2.73
				c-0.02,0-0.02,0-0.04-0.02c-80.1-51.85-145.33-121.38-191.75-201.79c-51.31-88.9-79.64-191.07-79.64-297.29l298.61,172.42
				l298.63-172.42C1248.36,980.52,1135.04,1176.79,951.07,1283.01z"/>
			<linearGradient id="SVGID_7_" gradientUnits="userSpaceOnUse" x1="564.3918" y1="950.8489" x2="1335.583" y2="950.8489">
				<stop  offset="0.0726" style="stop-color:#1DDD53"/>
				<stop  offset="0.9274" style="stop-color:#1DDDAE"/>
			</linearGradient>
			<path class="st6" d="M950,840.54L564.39,617.92c0,137.13,36.57,269.06,102.85,383.85c60.69,105.13,146.26,195.86,251.47,263.07
				c0.81,0.52,1.63,1.03,2.44,1.55c2.5,1.59,5,3.14,7.52,4.71c0.19,0.12,0.37,0.25,0.56,0.35c0.83,0.5,1.63,1.01,2.46,1.51
				c0.06,0.04,0.12,0.08,0.17,0.12c0.06,0.02,0.1,0.04,0.14,0.06c0.02,0.02,0.02,0.04,0.04,0.02c0.87,0.52,1.71,1.03,2.56,1.55
				c0.1,0.06,0.21,0.12,0.29,0.19c4.42,2.66,8.86,5.29,13.36,7.89l1.36,0.76l0.12,0.08l0.12,0.06h0.02l0.12,0.08l0.12-0.06
				l0.12-0.08l1.49-0.85c237.53-137.15,383.85-390.6,383.85-664.87L950,840.54z M947.97,1282.33c-5.31-3.06-10.59-6.17-15.84-9.31
				c-0.08-0.04-0.16-0.1-0.23-0.14c-30.75-21.17-55.88-48.71-74.11-80.26c-21.41-37.13-33.25-79.77-33.25-124.1l124.68,71.98
				l124.66-71.98c0,88.65-47.29,170.56-124.04,214.9L947.97,1282.33z M951.07,1283.01l-0.95,0.54l-0.14-0.06l0.45-0.27
				c130.38-75.27,210.69-214.36,210.69-364.92l-211.64,122.2l-211.64-122.2c0,75.29,20.07,147.68,56.46,210.69
				c32.28,55.92,77.41,104.44,132.75,140.93c-1.51-0.89-3.01-1.8-4.5-2.73c-0.02,0-0.02,0-0.04-0.02
				c-80.1-51.85-145.33-121.38-191.75-201.79c-51.31-88.9-79.64-191.07-79.64-297.29l298.61,172.42l298.63-172.42
				C1248.36,980.52,1135.04,1176.79,951.07,1283.01z"/>
			<linearGradient id="SVGID_8_" gradientUnits="userSpaceOnUse" x1="737.8464" y1="1101.042" x2="1161.1167" y2="1101.042">
				<stop  offset="0.0726" style="stop-color:#1DDD53"/>
				<stop  offset="0.9274" style="stop-color:#1DDDAE"/>
			</linearGradient>
			<path class="st7" d="M949.48,1040.51l-211.64-122.2c0,75.29,20.07,147.68,56.46,210.69c32.28,55.92,77.41,104.44,132.75,140.93
				c-1.51-0.89-3.01-1.8-4.5-2.73c0.68,0.45,1.38,0.91,2.09,1.34c0,0.02,0.02,0.02,0.04,0.02c1.32,0.87,2.64,1.71,3.99,2.54
				c0.19,0.12,0.37,0.25,0.56,0.35c0.87,0.56,1.73,1.12,2.62,1.63c0.33,0.23,0.66,0.43,0.99,0.64c0.33,0.19,0.66,0.39,0.99,0.58
				c0.74,0.5,1.51,0.95,2.25,1.38c0.04,0.02,0.08,0.04,0.1,0.06c4.03,2.48,8.09,4.89,12.2,7.27l1.09,0.62l0.12,0.08l0.12,0.06
				l0.12-0.08h0.02l0.12-0.06l0.12-0.08l-0.14-0.06l0.45-0.27c130.38-75.27,210.69-214.36,210.69-364.92L949.48,1040.51z
				 M949.85,1283.41l-1.88-1.07c-5.31-3.06-10.59-6.17-15.84-9.31c-0.08-0.04-0.16-0.1-0.23-0.14
				c-30.75-21.17-55.88-48.71-74.11-80.26c-21.41-37.13-33.25-79.77-33.25-124.1l124.68,71.98l124.66-71.98
				C1073.89,1157.16,1026.61,1239.07,949.85,1283.41z"/>
			<linearGradient id="SVGID_9_" gradientUnits="userSpaceOnUse" x1="737.8464" y1="1101.042" x2="1161.1167" y2="1101.042">
				<stop  offset="0.0726" style="stop-color:#1DDD53"/>
				<stop  offset="0.9274" style="stop-color:#1DDDAE"/>
			</linearGradient>
			<path class="st8" d="M949.48,1040.51l-211.64-122.2c0,75.29,20.07,147.68,56.46,210.69c32.28,55.92,77.41,104.44,132.75,140.93
				c0.02,0.04,0.04,0.06,0.08,0.06c0.54,0.39,1.09,0.74,1.65,1.09c0,0,0.02,0.02,0.04,0.02c0.95,0.64,1.9,1.26,2.85,1.86
				c0.1,0.06,0.21,0.14,0.31,0.19c0.02,0.02,0.02,0.04,0.04,0.02c0.27,0.19,0.54,0.37,0.81,0.56c0.33,0.19,0.66,0.39,0.99,0.58
				c1.24,0.83,2.5,1.61,3.76,2.37c0.17,0.1,0.31,0.19,0.45,0.29c3.47,2.13,6.94,4.21,10.49,6.26l0.83,0.47l0.12,0.08l0.12-0.06
				l0.25-0.16l0.12-0.06l0.45-0.27c130.38-75.27,210.69-214.36,210.69-364.92L949.48,1040.51z M949.85,1283.41l-1.88-1.07
				c-5.31-3.06-10.59-6.17-15.84-9.31c-0.08-0.04-0.16-0.1-0.23-0.14c-30.75-21.17-55.88-48.71-74.11-80.26
				c-21.41-37.13-33.25-79.77-33.25-124.1l124.68,71.98l124.66-71.98C1073.89,1157.16,1026.61,1239.07,949.85,1283.41z"/>
			<g>
				<g>
					<linearGradient id="SVGID_10_" gradientUnits="userSpaceOnUse" x1="932.1358" y1="1278.3992" x2="949.8531" y2="1278.3992">
						<stop  offset="0.0726" style="stop-color:#1DDD53"/>
						<stop  offset="0.9274" style="stop-color:#1DDDAE"/>
					</linearGradient>
					<path class="st9" d="M949.85,1283.41c-0.02,0.02-0.04,0.02-0.06,0.04l-0.06,0.04l-0.12,0.06l-0.12,0.08l-0.12,0.06l-0.12,0.08
						l-0.58-0.33c-3.59-2.09-7.14-4.23-10.61-6.48c-0.14-0.1-0.29-0.19-0.45-0.29c-0.45-0.31-0.93-0.62-1.4-0.93
						c-0.02-0.02-0.06-0.04-0.1-0.06c-0.39-0.25-0.78-0.52-1.2-0.78c-0.08-0.06-0.19-0.12-0.29-0.19c-0.43-0.31-0.89-0.62-1.34-0.93
						c-0.04-0.02-0.06-0.04-0.1-0.06c-0.35-0.23-0.68-0.45-1.01-0.7c5.24,3.14,10.53,6.26,15.84,9.31L949.85,1283.41z"/>
				</g>
			</g>
		</g>
	</g>
	<linearGradient id="SVGID_11_" gradientUnits="userSpaceOnUse" x1="28" y1="1686.5272" x2="1871.9304" y2="1686.5272">
		<stop  offset="0.0726" style="stop-color:#1DDD53"/>
		<stop  offset="0.9274" style="stop-color:#1DDDAE"/>
	</linearGradient>
	<path class="st10" d="M1857.57,1706.37c9.57-14.53,14.35-30.83,14.35-48.72c0.71-49.25-40.92-90.52-89.99-89.99h-229.41v238.09
		h92.83v-58.11h82.91l44.82,58.11h98.85l-51.91-66.79C1835.61,1731.7,1848.18,1720.72,1857.57,1706.37z M1772.89,1672
		c-3.9,3.9-8.68,5.85-14.35,5.85h-113.2v-40.57h113.2c11.34,0,20.37,9.03,20.37,20.37C1778.92,1663.14,1776.97,1667.93,1772.89,1672
		z M155.73,1567.83L28,1805.93h104.52l18.78-40.74h119.22l18.78,40.74h104.52l-127.73-238.09H155.73z M178.23,1707.08l32.77-70.33
		l32.6,70.33H178.23z M1362.62,1561.63c-89.64,0.18-162.98,26.04-162.63,116.21v17.36c-0.35,89.99,72.99,116.03,162.63,116.21
		c89.46-0.18,162.8-26.22,162.45-116.21v-17.36C1525.07,1587.85,1452.26,1561.63,1362.62,1561.63z M1432.24,1689.36
		c0.53,38.97-31.71,46.06-69.62,46.59c-38.09-0.53-70.33-7.62-69.8-46.59v-5.85c-0.53-38.8,31.71-45.88,69.8-46.41
		c37.91,0.53,70.15,7.62,69.62,46.41V1689.36z M705.95,1706.37c9.57-14.53,14.35-30.83,14.35-48.72
		c0.71-49.25-40.92-90.52-89.99-89.99H400.89v238.09h92.83v-58.11h82.91l44.82,58.11h98.85l-51.91-66.79
		C683.98,1731.7,696.56,1720.72,705.95,1706.37z M621.27,1672c-3.9,3.9-8.68,5.85-14.35,5.85h-113.2v-40.57h113.2
		c11.34,0,20.37,9.03,20.37,20.37C627.29,1663.14,625.34,1667.93,621.27,1672z M958.02,1686.53l-92.83-119.05H748.98v238.09h92.83
		v-127.02l93.01,127.02h46.41l93.01-127.02v127.02h92.83v-238.09h-116.03L958.02,1686.53z"/>
</g>
</svg>
