<?xml version="1.0" encoding="utf-8"?>
<!-- Generator: Adobe Illustrator 25.2.0, SVG Export Plug-In . SVG Version: 6.00 Build 0)  -->
<svg version="1.1" id="Capa_1" xmlns="http://www.w3.org/2000/svg" xmlns:xlink="http://www.w3.org/1999/xlink" x="0px" y="0px"
	 viewBox="0 0 1920 783" style="enable-background:new 0 0 1920 783;" xml:space="preserve">
<style type="text/css">
	.st0{fill:url(#SVGID_1_);}
	.st1{fill:url(#SVGID_2_);}
	.st2{fill:url(#SVGID_3_);}
	.st3{fill:url(#SVGID_4_);}
	.st4{fill:url(#SVGID_5_);}
	.st5{fill:url(#SVGID_6_);}
	.st6{fill:url(#SVGID_7_);}
	.st7{fill:url(#SVGID_8_);}
	.st8{fill:url(#SVGID_9_);}
	.st9{fill:url(#SVGID_10_);}
	.st10{fill:url(#SVGID_11_);}
</style>
<g>
	<g>
		<linearGradient id="SVGID_1_" gradientUnits="userSpaceOnUse" x1="268.8071" y1="77.2967" x2="481.7502" y2="77.2967">
			<stop  offset="0.0726" style="stop-color:#1DDD53"/>
			<stop  offset="0.9274" style="stop-color:#1DDDAE"/>
		</linearGradient>
		<path class="st0" d="M375.28,115.73l106.47-61.47l-11.24-6.49c-20.55-11.86-45.86-11.86-66.41,0l-28.83,16.64l-28.83-16.64
			c-20.55-11.86-45.86-11.86-66.41,0l-11.24,6.49L375.28,115.73z"/>
		<linearGradient id="SVGID_2_" gradientUnits="userSpaceOnUse" x1="134.9014" y1="195.0022" x2="615.6558" y2="195.0022">
			<stop  offset="0.0726" style="stop-color:#1DDD53"/>
			<stop  offset="0.9274" style="stop-color:#1DDDAE"/>
		</linearGradient>
		<path class="st1" d="M615.66,131.57L615.66,131.57c-27.5-15.88-61.38-15.88-88.89,0l-151.49,87.46l-151.49-87.46
			c-27.5-15.88-61.38-15.88-88.89,0l0,0l240.38,138.78L615.66,131.57z"/>
		<g>
			<g>
				<g>
					<linearGradient id="SVGID_3_" gradientUnits="userSpaceOnUse" x1="250.488" y1="643.7802" x2="498.8748" y2="643.7802">
						<stop  offset="0.0726" style="stop-color:#1DDD53"/>
						<stop  offset="0.9274" style="stop-color:#1DDDAE"/>
					</linearGradient>
					<path class="st2" d="M498.87,536.63c0,88.35-47.13,169.97-123.64,214.14l-0.27,0.16l-0.07-0.05
						c45.04-26.02,72.79-74.09,72.79-126.11l-73.15,42.24l-73.17-42.24c0,26.02,6.94,51.04,19.51,72.83
						c10.7,18.52,25.45,34.68,43.49,47.1c-0.93-0.56-1.87-1.13-2.8-1.7c-0.02,0-0.04-0.01-0.05-0.04
						c-32.47-21.41-58.96-49.89-77.9-82.7c-21.35-36.97-33.13-79.46-33.13-123.64l124.19,71.71L498.87,536.63z"/>
					<linearGradient id="SVGID_4_" gradientUnits="userSpaceOnUse" x1="148.7001" y1="555.6852" x2="601.2564" y2="555.6852">
						<stop  offset="0.0726" style="stop-color:#1DDD53"/>
						<stop  offset="0.9274" style="stop-color:#1DDDAE"/>
					</linearGradient>
					<path class="st3" d="M601.26,360.36c0,160.95-85.87,309.68-225.25,390.16l-0.87,0.5l-0.07-0.05l0.56-0.32
						c107.96-62.33,174.46-177.51,174.46-302.16L374.83,549.67L199.59,448.49c0,62.33,16.63,122.29,46.74,174.46
						c27.24,47.19,65.52,87.99,112.52,118.41c-0.75-0.46-1.49-0.91-2.23-1.37c-61.74-39.44-111.95-92.69-147.57-154.38
						c-38.9-67.36-60.36-144.78-60.36-225.25L374.98,491L601.26,360.36z"/>
					<linearGradient id="SVGID_5_" gradientUnits="userSpaceOnUse" x1="46.9122" y1="467.5842" x2="703.6381" y2="467.5842">
						<stop  offset="0.0726" style="stop-color:#1DDD53"/>
						<stop  offset="0.9274" style="stop-color:#1DDDAE"/>
					</linearGradient>
					<path class="st4" d="M703.64,184.07c0,233.57-124.61,449.39-326.88,566.18l-1.48,0.85l-0.07-0.04l1.18-0.68
						c170.83-98.64,276.08-280.91,276.08-478.17L375.13,432.32L97.81,272.21c0,98.63,26.31,193.52,73.98,276.08
						c43.94,76.1,106.03,141.73,182.38,190.16c-92.12-57.56-166.93-136.15-219.67-227.5C78.07,413.2,46.91,300.85,46.91,184.07
						l328.36,189.58L703.64,184.07z"/>
				</g>
			</g>
			<linearGradient id="SVGID_6_" gradientUnits="userSpaceOnUse" x1="148.7001" y1="555.7277" x2="601.2564" y2="555.7277">
				<stop  offset="0.0726" style="stop-color:#1DDD53"/>
				<stop  offset="0.9274" style="stop-color:#1DDDAE"/>
			</linearGradient>
			<path class="st5" d="M374.98,491L148.7,360.36c0,80.47,21.46,157.89,60.36,225.25c35.61,61.69,85.83,114.94,147.57,154.38
				c0.47,0.3,0.96,0.61,1.43,0.91c0.68,0.42,1.37,0.84,2.05,1.26c0,0.01,0.01,0.01,0.02,0.01c0.8,0.51,1.61,0.99,2.41,1.48
				c0,0,0.01,0.01,0.02,0.01c0.84,0.52,1.68,1.03,2.53,1.54c0.02,0.01,0.04,0.02,0.06,0.04c2.88,1.74,5.8,3.47,8.72,5.15l0.94,0.55
				l0.07,0.04l0.08,0.05l0.07,0.05l0.07,0.04l0.07-0.04l-0.07-0.05l0.87-0.5c139.39-80.49,225.25-229.22,225.25-390.16L374.98,491z
				 M373.8,750.25c-3.11-1.79-6.22-3.62-9.29-5.47c-0.05-0.02-0.1-0.06-0.13-0.08c-18.04-12.42-32.79-28.59-43.49-47.1
				c-12.57-21.79-19.51-46.81-19.51-72.83l73.17,42.24l73.15-42.24c0,52.02-27.75,100.09-72.79,126.11L373.8,750.25z M375.61,750.65
				l-0.56,0.32l-0.08-0.04l0.27-0.16c76.51-44.17,123.64-125.79,123.64-214.14l-124.19,71.71l-124.19-71.71
				c0,44.18,11.78,86.67,33.13,123.64c18.94,32.81,45.43,61.29,77.9,82.7c-0.88-0.52-1.77-1.05-2.64-1.6c-0.01,0-0.01,0-0.02-0.01
				c-47-30.43-85.28-71.23-112.52-118.41c-30.11-52.17-46.74-112.12-46.74-174.46l175.23,101.18l175.24-101.18
				C550.07,573.14,483.57,688.32,375.61,750.65z"/>
			<linearGradient id="SVGID_7_" gradientUnits="userSpaceOnUse" x1="148.7001" y1="555.7277" x2="601.2564" y2="555.7277">
				<stop  offset="0.0726" style="stop-color:#1DDD53"/>
				<stop  offset="0.9274" style="stop-color:#1DDDAE"/>
			</linearGradient>
			<path class="st6" d="M374.98,491L148.7,360.36c0,80.47,21.46,157.89,60.36,225.25c35.61,61.69,85.83,114.94,147.57,154.38
				c0.47,0.3,0.96,0.61,1.43,0.91c1.47,0.93,2.93,1.84,4.41,2.76c0.11,0.07,0.22,0.15,0.33,0.21c0.48,0.29,0.96,0.59,1.44,0.88
				c0.04,0.02,0.07,0.05,0.1,0.07c0.04,0.01,0.06,0.02,0.08,0.04c0.01,0.01,0.01,0.02,0.02,0.01c0.51,0.3,1.01,0.61,1.5,0.91
				c0.06,0.04,0.12,0.07,0.17,0.11c2.59,1.56,5.2,3.1,7.84,4.63l0.8,0.45l0.07,0.05l0.07,0.04h0.01l0.07,0.05l0.07-0.04l0.07-0.05
				l0.87-0.5c139.39-80.49,225.25-229.22,225.25-390.16L374.98,491z M373.8,750.25c-3.11-1.79-6.22-3.62-9.29-5.47
				c-0.05-0.02-0.1-0.06-0.13-0.08c-18.04-12.42-32.79-28.59-43.49-47.1c-12.57-21.79-19.51-46.81-19.51-72.83l73.17,42.24
				l73.15-42.24c0,52.02-27.75,100.09-72.79,126.11L373.8,750.25z M375.61,750.65l-0.56,0.32l-0.08-0.04l0.27-0.16
				c76.51-44.17,123.64-125.79,123.64-214.14l-124.19,71.71l-124.19-71.71c0,44.18,11.78,86.67,33.13,123.64
				c18.94,32.81,45.43,61.29,77.9,82.7c-0.88-0.52-1.77-1.05-2.64-1.6c-0.01,0-0.01,0-0.02-0.01
				c-47-30.43-85.28-71.23-112.52-118.41c-30.11-52.17-46.74-112.12-46.74-174.46l175.23,101.18l175.24-101.18
				C550.07,573.14,483.57,688.32,375.61,750.65z"/>
			<linearGradient id="SVGID_8_" gradientUnits="userSpaceOnUse" x1="250.488" y1="643.8651" x2="498.8748" y2="643.8651">
				<stop  offset="0.0726" style="stop-color:#1DDD53"/>
				<stop  offset="0.9274" style="stop-color:#1DDDAE"/>
			</linearGradient>
			<path class="st7" d="M374.68,608.34l-124.19-71.71c0,44.18,11.78,86.67,33.13,123.64c18.94,32.81,45.43,61.29,77.9,82.7
				c-0.88-0.52-1.77-1.05-2.64-1.6c0.4,0.27,0.81,0.53,1.22,0.79c0,0.01,0.01,0.01,0.02,0.01c0.78,0.51,1.55,1.01,2.34,1.49
				c0.11,0.07,0.22,0.15,0.33,0.21c0.51,0.33,1.02,0.65,1.54,0.96c0.19,0.13,0.39,0.25,0.58,0.38c0.19,0.11,0.39,0.23,0.58,0.34
				c0.44,0.29,0.88,0.56,1.32,0.81c0.02,0.01,0.05,0.02,0.06,0.04c2.36,1.45,4.75,2.87,7.16,4.27l0.64,0.36l0.07,0.05l0.07,0.04
				l0.07-0.05h0.01l0.07-0.04l0.07-0.05l-0.08-0.04l0.27-0.16c76.51-44.17,123.64-125.79,123.64-214.14L374.68,608.34z
				 M374.9,750.88l-1.1-0.63c-3.11-1.79-6.22-3.62-9.29-5.47c-0.05-0.02-0.1-0.06-0.13-0.08c-18.04-12.42-32.79-28.59-43.49-47.1
				c-12.57-21.79-19.51-46.81-19.51-72.83l73.17,42.24l73.15-42.24C447.69,676.79,419.94,724.87,374.9,750.88z"/>
			<linearGradient id="SVGID_9_" gradientUnits="userSpaceOnUse" x1="250.488" y1="643.8651" x2="498.8748" y2="643.8651">
				<stop  offset="0.0726" style="stop-color:#1DDD53"/>
				<stop  offset="0.9274" style="stop-color:#1DDDAE"/>
			</linearGradient>
			<path class="st8" d="M374.68,608.34l-124.19-71.71c0,44.18,11.78,86.67,33.13,123.64c18.94,32.81,45.43,61.29,77.9,82.7
				c0.01,0.02,0.02,0.04,0.05,0.04c0.32,0.23,0.64,0.44,0.97,0.64c0,0,0.01,0.01,0.02,0.01c0.56,0.38,1.11,0.74,1.67,1.09
				c0.06,0.04,0.12,0.08,0.18,0.11c0.01,0.01,0.01,0.02,0.02,0.01c0.16,0.11,0.31,0.22,0.47,0.33c0.19,0.11,0.39,0.23,0.58,0.34
				c0.73,0.48,1.47,0.95,2.21,1.39c0.1,0.06,0.18,0.11,0.27,0.17c2.04,1.25,4.07,2.47,6.16,3.67l0.48,0.28l0.07,0.05l0.07-0.04
				l0.15-0.1l0.07-0.04l0.27-0.16c76.51-44.17,123.64-125.79,123.64-214.14L374.68,608.34z M374.9,750.88l-1.1-0.63
				c-3.11-1.79-6.22-3.62-9.29-5.47c-0.05-0.02-0.1-0.06-0.13-0.08c-18.04-12.42-32.79-28.59-43.49-47.1
				c-12.57-21.79-19.51-46.81-19.51-72.83l73.17,42.24l73.15-42.24C447.69,676.79,419.94,724.87,374.9,750.88z"/>
			<g>
				<g>
					<linearGradient id="SVGID_10_" gradientUnits="userSpaceOnUse" x1="364.5024" y1="747.9433" x2="374.8994" y2="747.9433">
						<stop  offset="0.0726" style="stop-color:#1DDD53"/>
						<stop  offset="0.9274" style="stop-color:#1DDDAE"/>
					</linearGradient>
					<path class="st9" d="M374.9,750.88c-0.01,0.01-0.02,0.01-0.04,0.02l-0.04,0.02l-0.07,0.04l-0.07,0.05l-0.07,0.04l-0.07,0.05
						l-0.34-0.19c-2.11-1.22-4.19-2.48-6.23-3.8c-0.08-0.06-0.17-0.11-0.27-0.17c-0.27-0.18-0.55-0.36-0.82-0.55
						c-0.01-0.01-0.04-0.02-0.06-0.04c-0.23-0.15-0.46-0.3-0.7-0.46c-0.05-0.04-0.11-0.07-0.17-0.11c-0.25-0.18-0.52-0.36-0.79-0.55
						c-0.02-0.01-0.04-0.02-0.06-0.04c-0.21-0.13-0.4-0.27-0.59-0.41c3.08,1.84,6.18,3.67,9.29,5.47L374.9,750.88z"/>
				</g>
			</g>
		</g>
	</g>
	<linearGradient id="SVGID_11_" gradientUnits="userSpaceOnUse" x1="790.9305" y1="374.3926" x2="1873" y2="374.3926">
		<stop  offset="0.0726" style="stop-color:#1DDD53"/>
		<stop  offset="0.9274" style="stop-color:#1DDDAE"/>
	</linearGradient>
	<path class="st10" d="M1864.57,386.04c5.61-8.52,8.42-18.09,8.42-28.59c0.42-28.9-24.01-53.12-52.81-52.81h-134.63v139.72h54.47
		v-34.1h48.65l26.3,34.1h58.01l-30.46-39.19C1851.68,400.9,1859.06,394.46,1864.57,386.04z M1814.88,365.87
		c-2.29,2.29-5.09,3.43-8.42,3.43h-66.43v-23.81h66.43c6.65,0,11.96,5.3,11.96,11.95C1818.42,360.67,1817.27,363.48,1814.88,365.87z
		 M865.88,304.74l-74.95,139.72h61.34l11.02-23.91h69.96l11.02,23.91h61.34l-74.95-139.72H865.88z M879.09,386.45l19.23-41.27
		l19.13,41.27H879.09z M1574.12,301.1c-52.6,0.1-95.64,15.28-95.43,68.2v10.19c-0.21,52.81,42.83,68.09,95.43,68.2
		c52.5-0.1,95.54-15.39,95.33-68.2V369.3C1669.45,316.49,1626.73,301.1,1574.12,301.1z M1614.98,376.06
		c0.31,22.87-18.61,27.03-40.86,27.34c-22.35-0.31-41.27-4.47-40.96-27.34v-3.43c-0.31-22.77,18.61-26.93,40.96-27.24
		c22.25,0.31,41.17,4.47,40.86,27.24V376.06z M1188.77,386.04c5.61-8.52,8.42-18.09,8.42-28.59c0.42-28.9-24.01-53.12-52.81-52.81
		h-134.63v139.72h54.47v-34.1h48.65l26.3,34.1h58.01l-30.46-39.19C1175.88,400.9,1183.26,394.46,1188.77,386.04z M1139.08,365.87
		c-2.29,2.29-5.09,3.43-8.42,3.43h-66.43v-23.81h66.43c6.65,0,11.95,5.3,11.95,11.95C1142.61,360.67,1141.47,363.48,1139.08,365.87z
		 M1336.69,374.39l-54.47-69.86h-68.2v139.72h54.47v-74.54l54.58,74.54h27.24l54.58-74.54v74.54h54.47V304.53h-68.09L1336.69,374.39
		z"/>
</g>
</svg>
