<?xml version="1.0" encoding="utf-8"?>
<!-- Generator: Adobe Illustrator 25.2.0, SVG Export Plug-In . SVG Version: 6.00 Build 0)  -->
<svg version="1.1" id="Capa_1" xmlns="http://www.w3.org/2000/svg" xmlns:xlink="http://www.w3.org/1999/xlink" x="0px" y="0px"
	 viewBox="0 0 1256 369" style="enable-background:new 0 0 1256 369;" xml:space="preserve">
<style type="text/css">
	.st0{fill:url(#SVGID_1_);}
	.st1{fill:url(#SVGID_2_);}
	.st2{fill:url(#SVGID_3_);}
	.st3{fill:url(#SVGID_4_);}
	.st4{fill:url(#SVGID_5_);}
	.st5{fill:url(#SVGID_6_);}
	.st6{fill:url(#SVGID_7_);}
	.st7{fill:url(#SVGID_8_);}
	.st8{fill:url(#SVGID_9_);}
	.st9{fill:url(#SVGID_10_);}
	.st10{fill:url(#SVGID_11_);}
</style>
<g>
	<g>
		<linearGradient id="SVGID_1_" gradientUnits="userSpaceOnUse" x1="129.5393" y1="50.1422" x2="218.6217" y2="50.1422">
			<stop  offset="0.0726" style="stop-color:#1DDD53"/>
			<stop  offset="0.9274" style="stop-color:#1DDDAE"/>
		</linearGradient>
		<path class="st0" d="M174.08,66.22l44.54-25.72l-4.7-2.71c-8.6-4.96-19.18-4.96-27.78,0l-12.06,6.96l-12.06-6.96
			c-8.6-4.96-19.18-4.96-27.78,0l-4.7,2.71L174.08,66.22z"/>
		<linearGradient id="SVGID_2_" gradientUnits="userSpaceOnUse" x1="73.5214" y1="99.383" x2="274.6396" y2="99.383">
			<stop  offset="0.0726" style="stop-color:#1DDD53"/>
			<stop  offset="0.9274" style="stop-color:#1DDDAE"/>
		</linearGradient>
		<path class="st1" d="M274.64,72.84L274.64,72.84c-11.5-6.64-25.68-6.64-37.18,0l-63.38,36.59l-63.37-36.59
			c-11.5-6.64-25.68-6.64-37.18,0l0,0l100.56,58.06L274.64,72.84z"/>
		<g>
			<g>
				<g>
					<linearGradient id="SVGID_3_" gradientUnits="userSpaceOnUse" x1="121.8758" y1="287.1242" x2="225.7856" y2="287.1242">
						<stop  offset="0.0726" style="stop-color:#1DDD53"/>
						<stop  offset="0.9274" style="stop-color:#1DDDAE"/>
					</linearGradient>
					<path class="st2" d="M225.79,242.3c0,36.96-19.71,71.11-51.72,89.58l-0.11,0.07l-0.03-0.02
						c18.84-10.88,30.45-30.99,30.45-52.76l-30.6,17.67l-30.61-17.67c0,10.88,2.9,21.35,8.16,30.47
						c4.48,7.75,10.65,14.51,18.19,19.7c-0.39-0.23-0.78-0.47-1.17-0.71c-0.01,0-0.02-0.01-0.02-0.02
						c-13.59-8.96-24.67-20.87-32.59-34.6c-8.93-15.47-13.86-33.24-13.86-51.72l51.95,30L225.79,242.3z"/>
					<linearGradient id="SVGID_4_" gradientUnits="userSpaceOnUse" x1="79.2939" y1="250.2707" x2="268.6158" y2="250.2707">
						<stop  offset="0.0726" style="stop-color:#1DDD53"/>
						<stop  offset="0.9274" style="stop-color:#1DDDAE"/>
					</linearGradient>
					<path class="st3" d="M268.62,168.56c0,67.33-35.92,129.55-94.23,163.22l-0.37,0.21l-0.03-0.02l0.23-0.13
						c45.16-26.08,72.98-74.26,72.98-126.41l-73.31,42.33l-73.31-42.33c0,26.08,6.96,51.16,19.55,72.98
						c11.4,19.74,27.41,36.81,47.07,49.54c-0.31-0.19-0.62-0.38-0.93-0.57c-25.83-16.5-46.83-38.77-61.73-64.58
						c-16.27-28.18-25.25-60.57-25.25-94.23l94.66,54.65L268.62,168.56z"/>
					<linearGradient id="SVGID_5_" gradientUnits="userSpaceOnUse" x1="36.7121" y1="213.4146" x2="311.446" y2="213.4146">
						<stop  offset="0.0726" style="stop-color:#1DDD53"/>
						<stop  offset="0.9274" style="stop-color:#1DDDAE"/>
					</linearGradient>
					<path class="st4" d="M311.45,94.81c0,97.71-52.13,188-136.75,236.86l-0.62,0.35l-0.03-0.02l0.49-0.28
						c71.47-41.26,115.49-117.52,115.49-200.04l-116.02,66.98L58,131.68c0,41.26,11.01,80.96,30.95,115.49
						c18.38,31.84,44.36,59.29,76.3,79.55c-38.54-24.08-69.83-56.96-91.9-95.17c-23.61-40.89-36.64-87.9-36.64-136.75l137.37,79.31
						L311.45,94.81z"/>
				</g>
			</g>
			<linearGradient id="SVGID_6_" gradientUnits="userSpaceOnUse" x1="79.2939" y1="250.2885" x2="268.6158" y2="250.2885">
				<stop  offset="0.0726" style="stop-color:#1DDD53"/>
				<stop  offset="0.9274" style="stop-color:#1DDDAE"/>
			</linearGradient>
			<path class="st5" d="M173.96,223.21l-94.66-54.65c0,33.67,8.98,66.05,25.25,94.23c14.9,25.81,35.91,48.08,61.73,64.58
				c0.2,0.13,0.4,0.25,0.6,0.38c0.28,0.18,0.57,0.35,0.86,0.53c0,0.01,0.01,0.01,0.01,0.01c0.33,0.21,0.67,0.42,1.01,0.62
				c0,0,0.01,0.01,0.01,0.01c0.35,0.22,0.7,0.43,1.06,0.64c0.01,0.01,0.02,0.01,0.03,0.02c1.21,0.73,2.43,1.45,3.65,2.15l0.4,0.23
				l0.03,0.02l0.04,0.02l0.03,0.02l0.03,0.02l0.03-0.02l-0.03-0.02l0.37-0.21c58.31-33.67,94.23-95.89,94.23-163.22L173.96,223.21z
				 M173.46,331.67c-1.3-0.75-2.6-1.52-3.89-2.29c-0.02-0.01-0.04-0.03-0.06-0.04c-7.55-5.2-13.72-11.96-18.19-19.7
				c-5.26-9.11-8.16-19.58-8.16-30.47l30.61,17.67l30.6-17.67c0,21.76-11.61,41.87-30.45,52.76L173.46,331.67z M174.22,331.83
				l-0.23,0.13l-0.04-0.02l0.11-0.07c32.01-18.48,51.72-52.62,51.72-89.58l-51.95,30l-51.95-30c0,18.48,4.93,36.26,13.86,51.72
				c7.92,13.73,19,25.64,32.59,34.6c-0.37-0.22-0.74-0.44-1.11-0.67c-0.01,0-0.01,0-0.01,0c-19.66-12.73-35.68-29.8-47.07-49.54
				c-12.6-21.82-19.55-46.91-19.55-72.98l73.31,42.33l73.31-42.33C247.2,257.57,219.38,305.76,174.22,331.83z"/>
			<linearGradient id="SVGID_7_" gradientUnits="userSpaceOnUse" x1="79.2939" y1="250.2885" x2="268.6158" y2="250.2885">
				<stop  offset="0.0726" style="stop-color:#1DDD53"/>
				<stop  offset="0.9274" style="stop-color:#1DDDAE"/>
			</linearGradient>
			<path class="st6" d="M173.96,223.21l-94.66-54.65c0,33.67,8.98,66.05,25.25,94.23c14.9,25.81,35.91,48.08,61.73,64.58
				c0.2,0.13,0.4,0.25,0.6,0.38c0.61,0.39,1.23,0.77,1.85,1.16c0.05,0.03,0.09,0.06,0.14,0.09c0.2,0.12,0.4,0.25,0.6,0.37
				c0.02,0.01,0.03,0.02,0.04,0.03c0.02,0.01,0.03,0.01,0.04,0.02c0.01,0.01,0.01,0.01,0.01,0.01c0.21,0.13,0.42,0.25,0.63,0.38
				c0.03,0.02,0.05,0.03,0.07,0.05c1.08,0.65,2.17,1.3,3.28,1.94l0.33,0.19l0.03,0.02l0.03,0.02h0.01l0.03,0.02l0.03-0.02l0.03-0.02
				l0.37-0.21c58.31-33.67,94.23-95.89,94.23-163.22L173.96,223.21z M173.46,331.67c-1.3-0.75-2.6-1.52-3.89-2.29
				c-0.02-0.01-0.04-0.03-0.06-0.04c-7.55-5.2-13.72-11.96-18.19-19.7c-5.26-9.11-8.16-19.58-8.16-30.47l30.61,17.67l30.6-17.67
				c0,21.76-11.61,41.87-30.45,52.76L173.46,331.67z M174.22,331.83l-0.23,0.13l-0.04-0.02l0.11-0.07
				c32.01-18.48,51.72-52.62,51.72-89.58l-51.95,30l-51.95-30c0,18.48,4.93,36.26,13.86,51.72c7.92,13.73,19,25.64,32.59,34.6
				c-0.37-0.22-0.74-0.44-1.11-0.67c-0.01,0-0.01,0-0.01,0c-19.66-12.73-35.68-29.8-47.07-49.54
				c-12.6-21.82-19.55-46.91-19.55-72.98l73.31,42.33l73.31-42.33C247.2,257.57,219.38,305.76,174.22,331.83z"/>
			<linearGradient id="SVGID_8_" gradientUnits="userSpaceOnUse" x1="121.8758" y1="287.1598" x2="225.7856" y2="287.1598">
				<stop  offset="0.0726" style="stop-color:#1DDD53"/>
				<stop  offset="0.9274" style="stop-color:#1DDDAE"/>
			</linearGradient>
			<path class="st7" d="M173.83,272.3l-51.95-30c0,18.48,4.93,36.26,13.86,51.72c7.92,13.73,19,25.64,32.59,34.6
				c-0.37-0.22-0.74-0.44-1.11-0.67c0.17,0.11,0.34,0.22,0.51,0.33c0,0.01,0.01,0.01,0.01,0.01c0.32,0.21,0.65,0.42,0.98,0.62
				c0.05,0.03,0.09,0.06,0.14,0.09c0.21,0.14,0.43,0.27,0.64,0.4c0.08,0.06,0.16,0.11,0.24,0.16c0.08,0.05,0.16,0.1,0.24,0.14
				c0.18,0.12,0.37,0.23,0.55,0.34c0.01,0.01,0.02,0.01,0.03,0.02c0.99,0.61,1.99,1.2,3,1.78l0.27,0.15l0.03,0.02l0.03,0.02
				l0.03-0.02h0.01l0.03-0.02l0.03-0.02l-0.04-0.02l0.11-0.07c32.01-18.48,51.72-52.62,51.72-89.58L173.83,272.3z M173.92,331.93
				l-0.46-0.26c-1.3-0.75-2.6-1.52-3.89-2.29c-0.02-0.01-0.04-0.03-0.06-0.04c-7.55-5.2-13.72-11.96-18.19-19.7
				c-5.26-9.11-8.16-19.58-8.16-30.47l30.61,17.67l30.6-17.67C204.37,300.94,192.76,321.05,173.92,331.93z"/>
			<linearGradient id="SVGID_9_" gradientUnits="userSpaceOnUse" x1="121.8758" y1="287.1598" x2="225.7856" y2="287.1598">
				<stop  offset="0.0726" style="stop-color:#1DDD53"/>
				<stop  offset="0.9274" style="stop-color:#1DDDAE"/>
			</linearGradient>
			<path class="st8" d="M173.83,272.3l-51.95-30c0,18.48,4.93,36.26,13.86,51.72c7.92,13.73,19,25.64,32.59,34.6
				c0.01,0.01,0.01,0.02,0.02,0.02c0.13,0.1,0.27,0.18,0.41,0.27c0,0,0.01,0.01,0.01,0.01c0.23,0.16,0.47,0.31,0.7,0.46
				c0.03,0.02,0.05,0.04,0.08,0.05c0.01,0.01,0.01,0.01,0.01,0.01c0.07,0.05,0.13,0.09,0.2,0.14c0.08,0.05,0.16,0.1,0.24,0.14
				c0.3,0.2,0.61,0.4,0.92,0.58c0.04,0.03,0.08,0.05,0.11,0.07c0.85,0.52,1.7,1.03,2.58,1.54l0.2,0.12l0.03,0.02l0.03-0.02
				l0.06-0.04l0.03-0.02l0.11-0.07c32.01-18.48,51.72-52.62,51.72-89.58L173.83,272.3z M173.92,331.93l-0.46-0.26
				c-1.3-0.75-2.6-1.52-3.89-2.29c-0.02-0.01-0.04-0.03-0.06-0.04c-7.55-5.2-13.72-11.96-18.19-19.7
				c-5.26-9.11-8.16-19.58-8.16-30.47l30.61,17.67l30.6-17.67C204.37,300.94,192.76,321.05,173.92,331.93z"/>
			<g>
				<g>
					<linearGradient id="SVGID_10_" gradientUnits="userSpaceOnUse" x1="169.5724" y1="330.6997" x2="173.9219" y2="330.6997">
						<stop  offset="0.0726" style="stop-color:#1DDD53"/>
						<stop  offset="0.9274" style="stop-color:#1DDDAE"/>
					</linearGradient>
					<path class="st9" d="M173.92,331.93c-0.01,0.01-0.01,0.01-0.02,0.01l-0.02,0.01l-0.03,0.02l-0.03,0.02L173.8,332l-0.03,0.02
						l-0.14-0.08c-0.88-0.51-1.75-1.04-2.61-1.59c-0.04-0.03-0.07-0.05-0.11-0.07c-0.11-0.08-0.23-0.15-0.34-0.23
						c0-0.01-0.02-0.01-0.03-0.02c-0.1-0.06-0.19-0.13-0.29-0.19c-0.02-0.02-0.05-0.03-0.07-0.05c-0.11-0.08-0.22-0.15-0.33-0.23
						c-0.01-0.01-0.02-0.01-0.03-0.02c-0.09-0.06-0.17-0.11-0.25-0.17c1.29,0.77,2.59,1.54,3.89,2.29L173.92,331.93z"/>
				</g>
			</g>
		</g>
	</g>
	<linearGradient id="SVGID_11_" gradientUnits="userSpaceOnUse" x1="374.5859" y1="182.5701" x2="1210" y2="182.5701">
		<stop  offset="0.0726" style="stop-color:#1DDD53"/>
		<stop  offset="0.9274" style="stop-color:#1DDDAE"/>
	</linearGradient>
	<path class="st10" d="M1203.49,191.56c4.33-6.58,6.5-13.97,6.5-22.07c0.32-22.31-18.54-41.01-40.77-40.77h-103.94v107.87h42.06
		v-26.33h37.56l20.31,26.33H1210l-23.52-30.26C1193.54,203.04,1199.24,198.06,1203.49,191.56z M1165.13,175.99
		c-1.77,1.77-3.93,2.65-6.5,2.65h-51.29v-18.38h51.29c5.14,0,9.23,4.09,9.23,9.23C1167.86,171.98,1166.98,174.14,1165.13,175.99z
		 M432.45,128.8l-57.87,107.87h47.35l8.51-18.46h54.02l8.51,18.46h47.35L482.46,128.8H432.45z M442.65,191.88l14.85-31.86
		l14.77,31.86H442.65z M979.25,125.99c-40.61,0.08-73.84,11.8-73.68,52.65v7.87c-0.16,40.77,33.07,52.57,73.68,52.65
		c40.53-0.08,73.76-11.88,73.6-52.65v-7.87C1052.85,137.86,1019.86,125.99,979.25,125.99z M1010.79,183.85
		c0.24,17.66-14.37,20.87-31.54,21.11c-17.26-0.24-31.86-3.45-31.62-21.11v-2.65c-0.24-17.58,14.37-20.79,31.62-21.03
		c17.18,0.24,31.78,3.45,31.54,21.03V183.85z M681.74,191.56c4.33-6.58,6.5-13.97,6.5-22.07c0.32-22.31-18.54-41.01-40.77-40.77
		H543.53v107.87h42.06v-26.33h37.56l20.31,26.33h44.79l-23.52-30.26C671.79,203.04,677.48,198.06,681.74,191.56z M643.37,175.99
		c-1.77,1.77-3.93,2.65-6.5,2.65h-51.29v-18.38h51.29c5.14,0,9.23,4.09,9.23,9.23C646.1,171.98,645.22,174.14,643.37,175.99z
		 M795.94,182.57l-42.06-53.94h-52.65v107.87h42.06v-57.55l42.14,57.55h21.03l42.14-57.55v57.55h42.06V128.63h-52.57L795.94,182.57z
		"/>
</g>
</svg>
