<?xml version="1.0" encoding="utf-8"?>
<!-- Generator: Adobe Illustrator 25.2.0, SVG Export Plug-In . SVG Version: 6.00 Build 0)  -->
<svg version="1.1" id="Capa_1" xmlns="http://www.w3.org/2000/svg" xmlns:xlink="http://www.w3.org/1999/xlink" x="0px" y="0px"
	 viewBox="0 0 1082 1080" style="enable-background:new 0 0 1082 1080;" xml:space="preserve">
<style type="text/css">
	.st0{fill:url(#SVGID_1_);}
	.st1{fill:url(#SVGID_2_);}
	.st2{fill:url(#SVGID_3_);}
	.st3{fill:url(#SVGID_4_);}
	.st4{fill:url(#SVGID_5_);}
	.st5{fill:url(#SVGID_6_);}
	.st6{fill:url(#SVGID_7_);}
	.st7{fill:url(#SVGID_8_);}
	.st8{fill:url(#SVGID_9_);}
	.st9{fill:url(#SVGID_10_);}
</style>
<g>
	<linearGradient id="SVGID_1_" gradientUnits="userSpaceOnUse" x1="388.5301" y1="85.0333" x2="693.4799" y2="85.0333">
		<stop  offset="0.0726" style="stop-color:#1DDD53"/>
		<stop  offset="0.9274" style="stop-color:#1DDDAE"/>
	</linearGradient>
	<path class="st0" d="M541,140.07l152.48-88.03l-16.1-9.29c-29.42-16.99-65.67-16.99-95.1,0L541,66.57l-41.28-23.83
		c-29.42-16.99-65.67-16.99-95.1,0l-16.1,9.29L541,140.07z"/>
	<linearGradient id="SVGID_2_" gradientUnits="userSpaceOnUse" x1="196.7677" y1="253.596" x2="885.2422" y2="253.596">
		<stop  offset="0.0726" style="stop-color:#1DDD53"/>
		<stop  offset="0.9274" style="stop-color:#1DDDAE"/>
	</linearGradient>
	<path class="st1" d="M885.24,162.75L885.24,162.75c-39.38-22.74-87.91-22.74-127.29,0L541,288L324.06,162.75
		c-39.38-22.74-87.91-22.74-127.29,0l0,0L541,361.5L885.24,162.75z"/>
	<g>
		<g>
			<g>
				<linearGradient id="SVGID_3_" gradientUnits="userSpaceOnUse" x1="362.296" y1="896.278" x2="718.0034" y2="896.278">
					<stop  offset="0.0726" style="stop-color:#1DDD53"/>
					<stop  offset="0.9274" style="stop-color:#1DDDAE"/>
				</linearGradient>
				<path class="st2" d="M718,742.83c0,126.52-67.49,243.41-177.06,306.67l-0.38,0.23l-0.1-0.07
					c64.5-37.26,104.24-106.1,104.24-180.6l-104.76,60.49l-104.78-60.49c0,37.26,9.94,73.09,27.94,104.29
					c15.32,26.52,36.44,49.66,62.28,67.45c-1.34-0.8-2.67-1.61-4.01-2.43c-0.03,0-0.05-0.02-0.07-0.05
					c-46.51-30.66-84.44-71.44-111.56-118.44c-30.58-52.94-47.44-113.79-47.44-177.06l177.85,102.7L718,742.83z"/>
				<linearGradient id="SVGID_4_" gradientUnits="userSpaceOnUse" x1="216.5284" y1="770.1197" x2="864.6213" y2="770.1197">
					<stop  offset="0.0726" style="stop-color:#1DDD53"/>
					<stop  offset="0.9274" style="stop-color:#1DDDAE"/>
				</linearGradient>
				<path class="st3" d="M864.62,490.39c0,230.49-122.97,443.48-322.58,558.74l-1.25,0.71l-0.1-0.07l0.8-0.45
					c154.6-89.27,249.84-254.21,249.84-432.72L540.36,761.5L289.41,616.6c0,89.27,23.81,175.13,66.93,249.83
					c39.01,67.57,93.83,126,161.14,169.58c-1.08-0.66-2.13-1.3-3.19-1.96c-88.41-56.48-160.33-132.74-211.33-221.08
					c-55.7-96.47-86.44-207.34-86.44-322.58l324.06,187.09L864.62,490.39z"/>
				<linearGradient id="SVGID_5_" gradientUnits="userSpaceOnUse" x1="70.7609" y1="643.9528" x2="1011.2391" y2="643.9528">
					<stop  offset="0.0726" style="stop-color:#1DDD53"/>
					<stop  offset="0.9274" style="stop-color:#1DDDAE"/>
				</linearGradient>
				<path class="st4" d="M1011.24,237.94c0,334.48-178.44,643.56-468.12,810.81l-2.12,1.22l-0.1-0.05l1.68-0.97
					c244.65-141.26,395.36-402.28,395.36-684.78L540.79,593.45L143.64,364.17c0,141.24,37.67,277.13,105.94,395.36
					c62.92,108.98,151.84,202.96,261.18,272.32c-131.92-82.43-239.06-194.98-314.58-325.79C115.38,566.07,70.76,405.17,70.76,237.94
					L541,509.43L1011.24,237.94z"/>
			</g>
		</g>
		<linearGradient id="SVGID_6_" gradientUnits="userSpaceOnUse" x1="216.5284" y1="770.1805" x2="864.6213" y2="770.1805">
			<stop  offset="0.0726" style="stop-color:#1DDD53"/>
			<stop  offset="0.9274" style="stop-color:#1DDDAE"/>
		</linearGradient>
		<path class="st5" d="M540.58,677.48L216.53,490.39c0,115.24,30.73,226.11,86.44,322.58c51,88.35,122.91,164.6,211.33,221.08
			c0.68,0.43,1.37,0.87,2.05,1.3c0.97,0.61,1.96,1.2,2.93,1.8c0,0.02,0.02,0.02,0.03,0.02c1.15,0.73,2.31,1.42,3.45,2.12
			c0,0,0.02,0.02,0.03,0.02c1.2,0.75,2.41,1.48,3.63,2.2c0.03,0.02,0.05,0.03,0.09,0.05c4.13,2.5,8.31,4.96,12.49,7.38l1.35,0.78
			l0.1,0.05l0.12,0.07l0.1,0.07l0.1,0.05l0.1-0.05l-0.1-0.07l1.25-0.71c199.61-115.26,322.58-328.25,322.58-558.74L540.58,677.48z
			 M538.88,1048.75c-4.46-2.57-8.9-5.19-13.31-7.83c-0.07-0.03-0.14-0.09-0.19-0.12c-25.84-17.79-46.96-40.94-62.28-67.45
			c-18-31.2-27.94-67.04-27.94-104.29l104.78,60.49l104.76-60.49c0,74.5-39.74,143.34-104.24,180.6L538.88,1048.75z M541.49,1049.33
			l-0.8,0.45l-0.12-0.05l0.38-0.23C650.52,986.25,718,869.35,718,742.83l-177.85,102.7L362.3,742.83
			c0,63.27,16.87,124.11,47.44,177.06c27.12,46.99,65.06,87.77,111.56,118.44c-1.27-0.75-2.53-1.51-3.78-2.29
			c-0.02,0-0.02,0-0.03-0.02c-67.31-43.57-122.13-102-161.14-169.58c-43.12-74.71-66.93-160.57-66.93-249.83l250.95,144.9
			l250.96-144.9C791.32,795.12,696.09,960.06,541.49,1049.33z"/>
		<linearGradient id="SVGID_7_" gradientUnits="userSpaceOnUse" x1="216.5284" y1="770.1805" x2="864.6213" y2="770.1805">
			<stop  offset="0.0726" style="stop-color:#1DDD53"/>
			<stop  offset="0.9274" style="stop-color:#1DDDAE"/>
		</linearGradient>
		<path class="st6" d="M540.58,677.48L216.53,490.39c0,115.24,30.73,226.11,86.44,322.58c51,88.35,122.91,164.6,211.33,221.08
			c0.68,0.43,1.37,0.87,2.05,1.3c2.1,1.34,4.2,2.64,6.32,3.96c0.16,0.1,0.31,0.21,0.47,0.29c0.69,0.42,1.37,0.85,2.06,1.27
			c0.05,0.03,0.1,0.07,0.14,0.1c0.05,0.02,0.09,0.03,0.12,0.05c0.02,0.02,0.02,0.03,0.03,0.02c0.73,0.43,1.44,0.87,2.15,1.3
			c0.09,0.05,0.17,0.1,0.24,0.16c3.71,2.24,7.44,4.44,11.23,6.63l1.15,0.64l0.1,0.07l0.1,0.05h0.02l0.1,0.07l0.1-0.05l0.1-0.07
			l1.25-0.71c199.61-115.26,322.58-328.25,322.58-558.74L540.58,677.48z M538.88,1048.75c-4.46-2.57-8.9-5.19-13.31-7.83
			c-0.07-0.03-0.14-0.09-0.19-0.12c-25.84-17.79-46.96-40.94-62.28-67.45c-18-31.2-27.94-67.04-27.94-104.29l104.78,60.49
			l104.76-60.49c0,74.5-39.74,143.34-104.24,180.6L538.88,1048.75z M541.49,1049.33l-0.8,0.45l-0.12-0.05l0.38-0.23
			C650.52,986.25,718,869.35,718,742.83l-177.85,102.7L362.3,742.83c0,63.27,16.87,124.11,47.44,177.06
			c27.12,46.99,65.06,87.77,111.56,118.44c-1.27-0.75-2.53-1.51-3.78-2.29c-0.02,0-0.02,0-0.03-0.02
			c-67.31-43.57-122.13-102-161.14-169.58c-43.12-74.71-66.93-160.57-66.93-249.83l250.95,144.9l250.96-144.9
			C791.32,795.12,696.09,960.06,541.49,1049.33z"/>
		<linearGradient id="SVGID_8_" gradientUnits="userSpaceOnUse" x1="362.296" y1="896.3995" x2="718.0034" y2="896.3995">
			<stop  offset="0.0726" style="stop-color:#1DDD53"/>
			<stop  offset="0.9274" style="stop-color:#1DDDAE"/>
		</linearGradient>
		<path class="st7" d="M540.15,845.53L362.3,742.83c0,63.27,16.87,124.11,47.44,177.06c27.12,46.99,65.06,87.77,111.56,118.44
			c-1.27-0.75-2.53-1.51-3.78-2.29c0.57,0.38,1.16,0.76,1.75,1.13c0,0.02,0.02,0.02,0.03,0.02c1.11,0.73,2.22,1.44,3.35,2.13
			c0.16,0.1,0.31,0.21,0.47,0.29c0.73,0.47,1.46,0.94,2.2,1.37c0.28,0.19,0.56,0.36,0.83,0.54c0.28,0.16,0.56,0.33,0.83,0.49
			c0.62,0.42,1.27,0.8,1.89,1.16c0.03,0.02,0.07,0.03,0.09,0.05c3.38,2.08,6.8,4.11,10.26,6.11l0.92,0.52l0.1,0.07l0.1,0.05
			l0.1-0.07h0.02l0.1-0.05l0.1-0.07l-0.12-0.05l0.38-0.23C650.52,986.25,718,869.35,718,742.83L540.15,845.53z M540.46,1049.65
			l-1.58-0.9c-4.46-2.57-8.9-5.19-13.31-7.83c-0.07-0.03-0.14-0.09-0.19-0.12c-25.84-17.79-46.96-40.94-62.28-67.45
			c-18-31.2-27.94-67.04-27.94-104.29l104.78,60.49l104.76-60.49C644.7,943.56,604.96,1012.4,540.46,1049.65z"/>
		<linearGradient id="SVGID_9_" gradientUnits="userSpaceOnUse" x1="362.296" y1="896.3995" x2="718.0034" y2="896.3995">
			<stop  offset="0.0726" style="stop-color:#1DDD53"/>
			<stop  offset="0.9274" style="stop-color:#1DDDAE"/>
		</linearGradient>
		<path class="st8" d="M540.15,845.53L362.3,742.83c0,63.27,16.87,124.11,47.44,177.06c27.12,46.99,65.06,87.77,111.56,118.44
			c0.02,0.03,0.03,0.05,0.07,0.05c0.45,0.33,0.92,0.62,1.39,0.92c0,0,0.02,0.02,0.03,0.02c0.8,0.54,1.6,1.06,2.39,1.56
			c0.09,0.05,0.17,0.12,0.26,0.16c0.02,0.02,0.02,0.03,0.03,0.02c0.23,0.16,0.45,0.31,0.68,0.47c0.28,0.16,0.56,0.33,0.83,0.49
			c1.04,0.69,2.1,1.35,3.16,2c0.14,0.09,0.26,0.16,0.38,0.24c2.92,1.79,5.83,3.54,8.82,5.26l0.69,0.4l0.1,0.07l0.1-0.05l0.21-0.14
			l0.1-0.05l0.38-0.23C650.52,986.25,718,869.35,718,742.83L540.15,845.53z M540.46,1049.65l-1.58-0.9
			c-4.46-2.57-8.9-5.19-13.31-7.83c-0.07-0.03-0.14-0.09-0.19-0.12c-25.84-17.79-46.96-40.94-62.28-67.45
			c-18-31.2-27.94-67.04-27.94-104.29l104.78,60.49l104.76-60.49C644.7,943.56,604.96,1012.4,540.46,1049.65z"/>
		<g>
			<g>
				<linearGradient id="SVGID_10_" gradientUnits="userSpaceOnUse" x1="525.5727" y1="1045.4469" x2="540.462" y2="1045.4469">
					<stop  offset="0.0726" style="stop-color:#1DDD53"/>
					<stop  offset="0.9274" style="stop-color:#1DDDAE"/>
				</linearGradient>
				<path class="st9" d="M540.46,1049.65c-0.02,0.02-0.03,0.02-0.05,0.03l-0.05,0.03l-0.1,0.05l-0.1,0.07l-0.1,0.05l-0.1,0.07
					l-0.49-0.28c-3.02-1.75-6-3.56-8.92-5.45c-0.12-0.09-0.24-0.16-0.38-0.24c-0.38-0.26-0.78-0.52-1.18-0.78
					c-0.02-0.02-0.05-0.03-0.09-0.05c-0.33-0.21-0.66-0.43-1.01-0.66c-0.07-0.05-0.16-0.1-0.24-0.16c-0.36-0.26-0.75-0.52-1.13-0.78
					c-0.03-0.02-0.05-0.03-0.09-0.05c-0.3-0.19-0.57-0.38-0.85-0.59c4.41,2.64,8.85,5.26,13.31,7.83L540.46,1049.65z"/>
			</g>
		</g>
	</g>
</g>
</svg>
